<svg width="512" height="512" viewBox="0 0 512 512" fill="none" xmlns="http://www.w3.org/2000/svg">
<path d="M369.92 116.48C364.857 116.48 359.908 117.982 355.698 120.795C351.488 123.608 348.207 127.606 346.269 132.284C344.331 136.961 343.824 142.109 344.812 147.075C345.8 152.041 348.238 156.602 351.818 160.182C355.399 163.762 359.96 166.201 364.926 167.188C369.892 168.176 375.039 167.669 379.717 165.732C384.395 163.794 388.393 160.513 391.206 156.303C394.019 152.093 395.52 147.144 395.52 142.08C395.52 135.291 392.823 128.779 388.022 123.978C383.221 119.177 376.71 116.48 369.92 116.48ZM468.054 168.107C467.639 150.407 464.324 132.894 458.24 116.267C452.816 102.04 444.373 89.1583 433.494 78.507C422.93 67.5721 410.018 59.1828 395.734 53.9737C379.15 47.7051 361.618 44.3141 343.894 43.947C321.28 42.667 314.027 42.667 256 42.667C197.974 42.667 190.72 42.667 168.107 43.947C150.382 44.3141 132.85 47.7051 116.267 53.9737C102.009 59.2355 89.1082 67.6176 78.507 78.507C67.5721 89.0708 59.1828 101.983 53.9737 116.267C47.7051 132.85 44.3141 150.382 43.947 168.107C42.667 190.72 42.667 197.974 42.667 256C42.667 314.027 42.667 321.28 43.947 343.894C44.3141 361.618 47.7051 379.15 53.9737 395.734C59.1828 410.018 67.5721 422.93 78.507 433.494C89.1082 444.383 102.009 452.765 116.267 458.027C132.85 464.296 150.382 467.686 168.107 468.054C190.72 469.334 197.974 469.334 256 469.334C314.027 469.334 321.28 469.334 343.894 468.054C361.618 467.686 379.15 464.296 395.734 458.027C410.018 452.818 422.93 444.429 433.494 433.494C444.421 422.882 452.871 409.988 458.24 395.734C464.324 379.106 467.639 361.594 468.054 343.894C468.054 321.28 469.334 314.027 469.334 256C469.334 197.974 469.334 190.72 468.054 168.107ZM429.654 341.334C429.498 354.875 427.046 368.293 422.4 381.014C418.994 390.298 413.523 398.687 406.4 405.547C399.481 412.598 391.109 418.058 381.867 421.547C369.146 426.192 355.729 428.645 342.187 428.8C320.854 429.867 312.96 430.08 256.854 430.08C200.747 430.08 192.854 430.08 171.52 428.8C157.459 429.064 143.458 426.898 130.134 422.4C121.297 418.733 113.309 413.286 106.667 406.4C99.5862 399.547 94.1836 391.151 90.8803 381.867C85.6719 368.964 82.7831 355.242 82.347 341.334C82.347 320 81.067 312.107 81.067 256C81.067 199.894 81.067 192 82.347 170.667C82.4426 156.823 84.9699 143.103 89.8137 130.134C93.5693 121.129 99.334 113.102 106.667 106.667C113.148 99.3319 121.158 93.5064 130.134 89.6003C143.137 84.9079 156.843 82.4554 170.667 82.347C192 82.347 199.894 81.067 256 81.067C312.107 81.067 320 81.067 341.334 82.347C354.875 82.5023 368.293 84.9549 381.014 89.6003C390.708 93.1982 399.409 99.0477 406.4 106.667C413.391 113.22 418.854 121.232 422.4 130.134C427.142 143.124 429.596 156.838 429.654 170.667C430.72 192 430.934 199.894 430.934 256C430.934 312.107 430.72 320 429.654 341.334ZM256 146.56C234.364 146.602 213.226 153.057 195.257 165.108C177.288 177.159 163.294 194.266 155.043 214.267C146.793 234.268 144.656 256.266 148.903 277.481C153.149 298.697 163.589 318.177 178.903 333.461C194.217 348.745 213.718 359.147 234.941 363.353C256.165 367.558 278.159 365.379 298.144 357.089C318.129 348.8 335.208 334.772 347.224 316.78C359.24 298.787 365.654 277.636 365.654 256C365.682 241.603 362.863 227.341 357.36 214.037C351.857 200.732 343.778 188.647 333.587 178.476C323.396 168.305 311.295 160.249 297.98 154.772C284.665 149.295 270.398 146.504 256 146.56ZM256 327.04C241.95 327.04 228.215 322.874 216.533 315.068C204.85 307.262 195.745 296.167 190.368 283.186C184.991 270.205 183.584 255.922 186.325 242.141C189.066 228.361 195.832 215.703 205.767 205.767C215.703 195.832 228.361 189.066 242.141 186.325C255.922 183.584 270.205 184.991 283.186 190.368C296.167 195.745 307.262 204.85 315.068 216.533C322.874 228.215 327.04 241.95 327.04 256C327.04 265.329 325.203 274.567 321.633 283.186C318.063 291.805 312.83 299.637 306.233 306.233C299.637 312.83 291.805 318.063 283.186 321.633C274.567 325.203 265.329 327.04 256 327.04Z" fill="white"/>
</svg>
