<svg width="512" height="512" viewBox="0 0 512 512" fill="none" xmlns="http://www.w3.org/2000/svg">
<path d="M469.334 123.733C453.298 130.69 436.34 135.288 418.987 137.386C437.295 126.449 451.014 109.243 457.6 88.9596C440.396 99.2009 421.563 106.417 401.92 110.293C388.791 96.0545 371.306 86.5766 352.21 83.3458C333.113 80.1149 313.484 83.3139 296.401 92.441C279.318 101.568 265.748 116.107 257.819 133.777C249.889 151.448 248.049 171.251 252.587 190.08C217.801 188.32 183.775 179.263 152.718 163.495C121.662 147.728 94.269 125.604 72.3203 98.5596C64.6219 112.003 60.5767 127.228 60.587 142.72C60.5597 157.106 64.0903 171.277 70.8644 183.969C77.6386 196.661 87.446 207.481 99.4137 215.466C85.5038 215.088 71.8912 211.355 59.7337 204.586V205.653C59.8379 225.811 66.9015 245.314 79.7297 260.863C92.5579 276.412 110.363 287.053 130.134 290.986C122.523 293.302 114.622 294.523 106.667 294.613C101.161 294.549 95.668 294.049 90.2403 293.12C95.8704 310.46 106.766 325.613 121.41 336.472C136.054 347.331 153.719 353.355 171.947 353.706C141.167 377.925 103.166 391.143 64.0003 391.253C56.8693 391.276 49.744 390.849 42.667 389.973C82.6548 415.792 129.255 429.498 176.854 429.44C209.7 429.781 242.286 423.573 272.707 411.18C303.128 398.787 330.774 380.456 354.031 357.258C377.289 334.061 395.69 306.461 408.162 276.072C420.633 245.683 426.924 213.114 426.667 180.266C426.667 176.64 426.667 172.8 426.667 168.96C443.407 156.476 457.845 141.171 469.334 123.733Z" fill="white"/>
</svg>
