<svg width="425" height="428" viewBox="0 0 425 428" fill="none" xmlns="http://www.w3.org/2000/svg">
<path d="M311.467 256.533C307.2 254.4 279.467 241.6 275.2 239.467C270.933 237.333 266.667 237.333 262.4 241.6C258.133 245.867 249.6 258.667 245.333 262.933C243.2 267.2 238.933 267.2 234.667 265.067C219.733 258.667 204.8 250.133 192 239.467C181.333 228.8 170.667 216 162.133 203.2C160 198.933 162.133 194.667 164.267 192.533C166.4 190.4 168.533 186.133 172.8 184C174.933 181.867 177.067 177.6 177.067 175.467C179.2 173.333 179.2 169.067 177.067 166.933C174.933 164.8 164.267 139.2 160 128.533C157.867 113.6 153.6 113.6 149.333 113.6H138.667C134.4 113.6 128 117.867 125.867 120C113.067 132.8 106.667 147.733 106.667 164.8C108.8 184 115.2 203.2 128 220.267C151.467 254.4 181.333 282.133 217.6 299.2C228.267 303.467 236.8 307.733 247.467 309.867C258.133 314.133 268.8 314.133 281.6 312C296.533 309.867 309.333 299.2 317.867 286.4C322.133 277.867 322.133 269.333 320 260.8L311.467 256.533ZM364.8 62.4C281.6 -20.8 147.2 -20.8 64 62.4C-4.26667 130.667 -17.0667 235.2 29.8667 318.4L0 427.2L113.067 397.333C145.067 414.4 179.2 422.933 213.333 422.933C330.667 422.933 424.533 329.067 424.533 211.733C426.667 156.267 403.2 102.933 364.8 62.4ZM307.2 361.067C279.467 378.133 247.467 388.8 213.333 388.8C181.333 388.8 151.467 380.267 123.733 365.333L117.333 361.067L51.2 378.133L68.2667 314.133L64 307.733C12.8 222.4 38.4 115.733 121.6 62.4C204.8 9.06667 311.467 36.8 362.667 117.867C413.867 201.067 390.4 309.867 307.2 361.067Z" fill="#FFFBFB"/>
</svg>
